<?xml version="1.0" encoding="utf-8"?>
<!-- Generator: Adobe Illustrator 16.0.0, SVG Export Plug-In . SVG Version: 6.00 Build 0)  -->
<!DOCTYPE svg PUBLIC "-//W3C//DTD SVG 1.1//EN" "http://www.w3.org/Graphics/SVG/1.1/DTD/svg11.dtd">
<svg version="1.1" id="Layer_1" xmlns="http://www.w3.org/2000/svg" xmlns:xlink="http://www.w3.org/1999/xlink" x="0px" y="0px"
	 width="141px" height="100.333px" viewBox="29.833 48.164 141 100.333" enable-background="new 29.833 48.164 141 100.333"
	 xml:space="preserve">
<g>
	<g id="a">
		<path fill="#3EA0D3" d="M53.367-34.513h8.4c4.934,0.213,7.399,2.133,7.399,5.759c0,3.521-2.167,9.014-6.5,16.48
			c-4.533,7.307-9.5,13.76-14.899,19.36c-3.134,3.146-4.7,5.601-4.7,7.36c0,4.479,2.7,6.72,8.1,6.72c4.534,0,10.134-3.44,16.8-10.32
			c17.601-18.56,26.4-36.933,26.4-55.12c0-9.6-3.1-17.44-9.3-23.52c-6.267-6.24-14.366-9.36-24.3-9.36
			c-8.268,0-15.2,2.187-20.801,6.56c-5.6,4.213-8.399,9.494-8.399,15.84c0,5.387,2.167,10.054,6.5,14
			C42.467-36.86,47.567-34.78,53.367-34.513 M18.067-44.273c0-9.6-3.067-17.44-9.2-23.52c-6.533-6.24-14.467-9.36-23.8-9.36
			c-8.534,0-15.6,2.187-21.2,6.56c-5.6,4.213-8.4,9.494-8.4,15.84c0,5.387,2.167,10.054,6.5,14c4.4,3.894,9.4,5.974,15,6.24h8.4
			c5.4,0.213,8.1,2.133,8.1,5.759c0,3.521-2.3,9.014-6.9,16.48c-4.534,7.307-9.6,13.76-15.2,19.36c-2.867,3.146-4.3,5.601-4.3,7.36
			c0,4.479,2.8,6.72,8.4,6.72c4.733,0,10.3-3.44,16.7-10.32C9.434-7.553,18.067-25.927,18.067-44.273z"/>
	</g>
</g>
<g>
	<g id="a_1_">
		<path fill="#3EA0D3" d="M72.933,104.857h-8.4c-4.934-0.214-7.399-2.134-7.399-5.76c0-3.521,2.167-9.014,6.5-16.48
			c4.533-7.307,9.5-13.76,14.899-19.36c3.134-3.146,4.7-5.601,4.7-7.36c0-4.479-2.7-6.72-8.1-6.72c-4.534,0-10.134,3.44-16.8,10.32
			c-17.601,18.56-26.4,36.933-26.4,55.12c0,9.6,3.1,17.439,9.3,23.52c6.267,6.24,14.366,9.36,24.3,9.36
			c8.268,0,15.2-2.187,20.801-6.56c5.6-4.214,8.399-9.494,8.399-15.84c0-5.387-2.167-10.055-6.5-14
			C83.833,107.203,78.733,105.123,72.933,104.857 M108.232,114.617c0,9.6,3.067,17.439,9.201,23.52
			c6.533,6.24,14.467,9.36,23.799,9.36c8.534,0,15.601-2.187,21.201-6.56c5.6-4.214,8.399-9.494,8.399-15.84
			c0-5.387-2.167-10.055-6.5-14c-4.399-3.895-9.399-5.975-15-6.24h-8.399c-5.4-0.214-8.101-2.134-8.101-5.76
			c0-3.521,2.3-9.014,6.899-16.48c4.534-7.307,9.601-13.76,15.201-19.36c2.866-3.146,4.299-5.601,4.299-7.36
			c0-4.479-2.799-6.72-8.399-6.72c-4.733,0-10.3,3.44-16.7,10.32C116.866,77.896,108.232,96.271,108.232,114.617z"/>
	</g>
</g>
</svg>
